<svg xmlns="http://www.w3.org/2000/svg" viewBox="0 0 1024 1024">
  <defs>
    <linearGradient id="bg" x1="0" y1="0" x2="1" y2="1">
      <stop offset="0" stop-color="#4f8cff"/>
      <stop offset="1" stop-color="#1d4ed8"/>
    </linearGradient>
    <linearGradient id="gear" x1="0" y1="0" x2="0" y2="1">
      <stop offset="0" stop-color="#ffffff"/>
      <stop offset="1" stop-color="#dbe6ff"/>
    </linearGradient>
  </defs>
  <rect x="48" y="48" width="928" height="928" rx="208" fill="url(#bg)"/>
  <path fill="#0f2f8a" opacity="0.28" fill-rule="evenodd" transform="translate(0 18)" d="M 471.0 265.4 L 479.6 195.7 L 544.4 195.7 L 553.0 265.4 A 250 250 0 0 1 657.4 308.6 L 712.8 265.4 L 758.6 311.2 L 715.4 366.6 A 250 250 0 0 1 758.6 471.0 L 828.3 479.6 L 828.3 544.4 L 758.6 553.0 A 250 250 0 0 1 715.4 657.4 L 758.6 712.8 L 712.8 758.6 L 657.4 715.4 A 250 250 0 0 1 553.0 758.6 L 544.4 828.3 L 479.6 828.3 L 471.0 758.6 A 250 250 0 0 1 366.6 715.4 L 311.2 758.6 L 265.4 712.8 L 308.6 657.4 A 250 250 0 0 1 265.4 553.0 L 195.7 544.4 L 195.7 479.6 L 265.4 471.0 A 250 250 0 0 1 308.6 366.6 L 265.4 311.2 L 311.2 265.4 L 366.6 308.6 A 250 250 0 0 1 471.0 265.4 Z M 616 512 A 104 104 0 1 0 408 512 A 104 104 0 1 0 616 512 Z"/>
  <path fill="url(#gear)" fill-rule="evenodd" stroke="url(#gear)" stroke-width="28" stroke-linejoin="round" d="M 471.0 265.4 L 479.6 195.7 L 544.4 195.7 L 553.0 265.4 A 250 250 0 0 1 657.4 308.6 L 712.8 265.4 L 758.6 311.2 L 715.4 366.6 A 250 250 0 0 1 758.6 471.0 L 828.3 479.6 L 828.3 544.4 L 758.6 553.0 A 250 250 0 0 1 715.4 657.4 L 758.6 712.8 L 712.8 758.6 L 657.4 715.4 A 250 250 0 0 1 553.0 758.6 L 544.4 828.3 L 479.6 828.3 L 471.0 758.6 A 250 250 0 0 1 366.6 715.4 L 311.2 758.6 L 265.4 712.8 L 308.6 657.4 A 250 250 0 0 1 265.4 553.0 L 195.7 544.4 L 195.7 479.6 L 265.4 471.0 A 250 250 0 0 1 308.6 366.6 L 265.4 311.2 L 311.2 265.4 L 366.6 308.6 A 250 250 0 0 1 471.0 265.4 Z M 616 512 A 104 104 0 1 0 408 512 A 104 104 0 1 0 616 512 Z"/>
</svg>
